<?xml version="1.0" encoding="UTF-8"?>
<svg width="104px" height="65px" viewBox="0 0 104 65" version="1.1" xmlns="http://www.w3.org/2000/svg" xmlns:xlink="http://www.w3.org/1999/xlink">
    <!-- Generator: Sketch 52.6 (67491) - http://www.bohemiancoding.com/sketch -->
    <title>MB Copy</title>
    <desc>Created with Sketch.</desc>
    <defs>
        <linearGradient x1="50%" y1="0%" x2="50%" y2="100%" id="linearGradient-1">
            <stop stop-color="#FF5858" offset="0%"></stop>
            <stop stop-color="#F09819" offset="100%"></stop>
        </linearGradient>
        <path d="M67.2882883,63.7 L69,65 L50,65 L51.7972973,63.7 L51.7972973,10.4866667 L56.2477477,0 L68.9144144,0 L67.2882883,1.21333333 L67.2882883,63.7 Z M37.6694215,42.38 L43,34.6666667 L35.4483471,65 L29.4070248,65 L2.39876033,1.3 L0,0 L20.0785124,0 L37.6694215,42.38 Z M16,65 L0,65 C0,65 4.86956522,62.6521739 8,45 C9.91304348,62.5652174 16,65 16,65 Z M104,47.58 C104,62.14 87.2857143,65 77.8571429,65 C80.6,64.5666667 85.9142857,62.14 86.5142857,53.7333333 C86.5142857,53.7333333 86.7714286,51.0466667 86.7714286,47.58 C86.7714286,44.2 86.5142857,41.6 86.5142857,41.6 C85.9142857,33.1933333 79.3142857,30.7666667 77,30.2466667 C79.2285714,29.8133333 83.4285714,28.6866667 83.9428571,20.8866667 C83.9428571,20.8866667 84.2,18.3733333 84.2,15.4266667 C84.2,12.48 83.9428571,9.88 83.9428571,9.88 C83.5142857,1.99333333 79.1428571,0.346666667 77.2571429,0 C90.1142857,0 99.2,7.36666667 99.2,15.4266667 C99.2,23.4866667 91.7428571,29.2066667 81.2857143,30.0733333 C91.7428571,30.0733333 104,35.9666667 104,47.58 Z" id="path-2"></path>
    </defs>
    <g id="Page-1" stroke="none" stroke-width="1" fill="none" fill-rule="evenodd">
        <g id="Desktop" transform="translate(-841.000000, -873.000000)">
            <g id="Group-Copy-13" transform="translate(812.000000, 824.000000)">
                <g id="Group-2" transform="translate(29.000000, 49.000000)">
                    <mask id="mask-3" fill="white">
                        <use xlink:href="#path-2"></use>
                    </mask>
                    <use id="MB-Copy" fill="url(#linearGradient-1)" xlink:href="#path-2"></use>
                </g>
            </g>
        </g>
    </g>
</svg>