<?xml version="1.0" encoding="UTF-8"?>
<svg width="118px" height="75px" viewBox="0 0 118 75" version="1.1" xmlns="http://www.w3.org/2000/svg" xmlns:xlink="http://www.w3.org/1999/xlink">
    <!-- Generator: Sketch 52.6 (67491) - http://www.bohemiancoding.com/sketch -->
    <title>MB-White</title>
    <desc>Created with Sketch.</desc>
    <g id="Page-1" stroke="none" stroke-width="1" fill="none" fill-rule="evenodd">
        <path d="M76.8,73.5 L78.8,75 L56.6,75 L58.7,73.5 L58.7,12.1 L63.9,0 L78.7,0 L76.8,1.4 L76.8,73.5 Z M42.6,48.9 L48.6,40 L40.1,75 L33.3,75 L2.9,1.5 L0.2,0 L22.8,0 L42.6,48.9 Z M18.4,75 L0,75 C0,75 5.6,72.3 9.2,52 C11.4,72.2 18.4,75 18.4,75 Z M117.8,54.9 C117.8,71.7 98.3,75 87.3,75 C90.5,74.5 96.7,71.7 97.4,62 C97.4,62 97.7,58.9 97.7,54.9 C97.7,51 97.4,48 97.4,48 C96.7,38.3 89,35.5 86.3,34.9 C88.9,34.4 93.8,33.1 94.4,24.1 C94.4,24.1 94.7,21.2 94.7,17.8 C94.7,14.4 94.4,11.4 94.4,11.4 C93.9,2.3 88.8,0.4 86.6,0 C101.6,0 112.2,8.5 112.2,17.8 C112.2,27.1 103.5,33.7 91.3,34.7 C103.5,34.7 117.8,41.5 117.8,54.9 Z" id="MB-White" fill="#FFFFFF"></path>
    </g>
</svg>